<?xml version="1.0" standalone="no"?>
<!DOCTYPE svg PUBLIC "-//W3C//DTD SVG 20010904//EN"
 "http://www.w3.org/TR/2001/REC-SVG-20010904/DTD/svg10.dtd">
<svg version="1.0" xmlns="http://www.w3.org/2000/svg"
 width="498.000000pt" height="498.000000pt" viewBox="0 0 498.000000 498.000000"
 preserveAspectRatio="xMidYMid meet">
<metadata>
Created by potrace 1.11, written by Peter Selinger 2001-2013
</metadata>
<g transform="translate(0.000000,498.000000) scale(0.100000,-0.100000)"
fill="#000000" stroke="none">
<path d="M566 3092 c-4 -11 -29 -43 -56 -72 -47 -50 -71 -105 -56 -128 3 -6 3
-17 0 -26 -8 -21 -34 -2 -34 24 0 34 -12 51 -52 71 -52 27 -118 27 -161 0 -65
-40 -89 -85 -100 -187 -3 -23 -10 -51 -16 -62 -12 -22 -27 -108 -41 -240 -6
-46 -12 -95 -15 -109 -18 -104 -18 -107 20 -176 20 -37 42 -67 49 -67 7 0 19
-15 27 -32 18 -43 37 -45 79 -11 62 51 80 72 80 97 0 13 5 47 12 75 l11 51 25
-38 c14 -20 38 -51 53 -69 15 -17 31 -38 36 -47 13 -23 87 -30 127 -11 19 9
37 23 40 32 5 13 9 13 22 2 9 -7 20 -23 25 -36 10 -28 81 -76 113 -75 37 0 92
67 112 137 22 75 21 71 24 98 2 20 2 20 10 -6 7 -24 30 -77 63 -144 6 -13 16
-23 23 -23 6 0 17 -13 22 -29 14 -41 44 -55 68 -33 15 13 46 66 60 100 4 8 62
-57 69 -77 7 -24 58 -51 95 -51 29 0 69 47 83 96 l11 43 32 -27 c38 -32 92
-65 189 -117 39 -20 81 -45 95 -55 14 -9 30 -19 35 -21 6 -2 39 -21 75 -41 83
-47 140 -53 169 -17 11 13 21 31 22 39 6 52 3 74 -8 86 -13 12 -33 58 -33 73
0 5 15 11 33 15 28 6 36 3 62 -29 17 -20 40 -37 50 -39 22 -3 89 28 119 56 11
10 23 18 26 18 13 0 46 76 43 100 -14 112 -10 169 23 310 42 181 43 185 67
168 16 -12 18 -30 18 -148 -1 -366 -4 -339 41 -382 15 -14 28 -32 28 -40 1 -7
21 -26 46 -42 61 -38 103 -31 144 26 16 22 32 56 36 74 8 42 17 43 45 2 52
-76 134 -127 203 -128 54 0 189 75 265 148 11 11 19 8 47 -19 19 -18 37 -41
40 -52 7 -21 88 -76 108 -73 8 1 32 18 54 38 34 31 43 48 63 123 12 49 25 82
27 74 3 -8 15 -36 27 -64 12 -27 25 -60 29 -72 4 -12 16 -25 26 -28 11 -4 23
-17 26 -31 8 -32 42 -56 63 -44 9 4 29 33 45 62 l29 54 28 -29 c16 -16 31 -37
34 -46 3 -9 17 -24 32 -33 56 -32 92 3 138 132 28 79 41 137 44 192 1 10 8 15
19 13 9 -2 38 -4 64 -4 l46 -1 -14 -45 c-15 -51 -7 -87 24 -104 11 -6 25 -24
32 -40 15 -38 101 -77 248 -111 32 -7 52 -17 52 -26 0 -12 11 -18 30 -16 3 0
44 3 90 7 126 8 136 12 154 50 22 45 20 78 -4 93 -11 7 -20 23 -20 35 0 28
-14 46 -57 76 -18 12 -30 27 -28 34 2 7 7 29 10 51 3 21 7 41 9 45 2 3 7 39
11 79 4 41 11 88 16 105 5 18 9 44 9 58 0 24 5 27 46 33 82 11 134 58 134 121
0 32 -58 153 -90 187 -14 15 -41 30 -60 34 -35 6 -48 7 -215 18 -49 3 -110 9
-133 12 -36 5 -48 2 -67 -16 -13 -12 -29 -35 -35 -51 -7 -16 -14 -29 -16 -29
-1 0 -19 9 -38 21 -56 33 -123 50 -216 55 -47 2 -92 7 -100 10 -53 21 -79 16
-123 -26 -39 -36 -64 -79 -59 -102 1 -5 -2 -8 -8 -8 -11 0 -13 12 -10 47 1 13
-7 26 -21 34 -13 6 -28 16 -33 21 -74 60 -71 60 -153 7 -73 -48 -117 -112
-153 -227 l-24 -73 -44 93 c-54 110 -112 172 -206 218 -66 33 -91 34 -156 7
-36 -15 -53 -17 -65 -8 -5 4 -14 7 -20 6 -38 -6 -64 -20 -74 -41 -12 -27 -11
-27 -70 13 -46 31 -134 56 -196 55 -54 0 -145 -31 -185 -61 -25 -20 -25 -20
-50 6 -33 33 -130 64 -156 50 -24 -14 -74 -69 -74 -82 0 -5 -14 -46 -30 -90
-17 -44 -33 -95 -36 -114 -3 -19 -11 -46 -17 -60 -13 -33 -12 -29 -21 -73 -5
-21 -12 -38 -18 -38 -5 0 -7 4 -4 8 3 5 6 44 7 88 2 82 -21 170 -60 234 -5 8
-15 29 -21 47 -13 35 -89 81 -112 67 -28 -16 -70 -60 -84 -87 l-15 -27 -22 21
c-51 48 -219 109 -300 109 -105 0 -152 -35 -214 -158 -1 -2 -10 1 -21 7 -13 7
-18 17 -15 30 6 24 -13 61 -32 61 -7 0 -15 4 -17 8 -5 12 -65 52 -78 52 -7 0
-39 -17 -72 -37 -80 -50 -116 -103 -162 -243 -24 -71 -26 -73 -26 -35 -2 103
-30 214 -62 251 -10 11 -18 29 -18 40 0 28 -19 44 -51 44 -18 0 -30 -6 -33
-18z m3263 -262 c0 -10 -3 -8 -9 5 -12 27 -12 43 0 25 5 -8 9 -22 9 -30z m363
-105 c0 -6 -15 -15 -34 -21 -28 -10 -34 -9 -37 4 -5 22 26 42 51 33 11 -4 20
-11 20 -16z m-1100 -95 c-6 -11 -12 -24 -12 -30 0 -6 -18 -39 -40 -73 l-40
-62 0 46 c0 29 6 51 15 59 8 7 15 17 15 22 0 5 12 24 27 43 18 23 31 31 38 24
6 -6 5 -16 -3 -29z m-1447 -177 c-2 -38 1 -76 6 -85 14 -26 -4 -23 -37 6 -16
13 -42 35 -57 48 l-28 23 53 36 c29 20 56 37 60 38 4 0 5 -29 3 -66z m2780
-19 c-27 -20 -39 -5 -13 16 14 11 24 14 27 8 2 -6 -4 -17 -14 -24z"/>
</g>
</svg>
